<svg xmlns="http://www.w3.org/2000/svg" xmlns:xlink="http://www.w3.org/1999/xlink" width="86" height="85" viewBox="0 0 86 85"><defs><path id="hmska" d="M1313.86 1197.438a1.66 1.66 0 1 0 0 3.321 1.66 1.66 0 0 0 0-3.322z"/><path id="hmskb" d="M1340.448 1177.333l-16.823-8.412 1.523-2.031a1.66 1.66 0 0 0-1.328-2.656h-2.928l6.262-3.131 23.665 11.406zm-13.294 19.915l-9.583-4.791 22.877-11.438 10.372 4.824zm11.608 10.784l-23.242 11.621v-13.915a1.66 1.66 0 1 0-3.32 0v13.915l-23.243-11.621v-12.692l10.9 5.253c.463.223 1.003.22 1.464-.01l12.538-6.27 12.54 6.27c.459.23 1 .233 1.462.01l10.9-5.253zm-51.491-27.013l22.876 11.438-9.582 4.791-23.666-11.405zm13.294-19.916l6.262 3.131h-2.929a1.66 1.66 0 0 0-1.328 2.657l1.523 2.03-16.822 8.412-10.372-4.824zm13.294 29.498l-22.85-11.425 15.109-7.555 6.413 8.55a1.66 1.66 0 0 0 2.657 0l6.413-8.55 15.108 7.555zm-3.32-48.28h6.64v23.574c0 .916.744 1.66 1.66 1.66h1.662l-6.642 8.854-5.916-7.888-.725-.966h1.66a1.66 1.66 0 0 0 1.661-1.66zm45.82 30.225a1.66 1.66 0 0 0-.94-1.506l-27.558-13.282a1.661 1.661 0 0 0-1.463.01l-5.898 2.95v-20.058a1.66 1.66 0 0 0-1.66-1.66h-9.961a1.66 1.66 0 0 0-1.66 1.66v20.058l-5.898-2.95c-.46-.229-1-.233-1.463-.01l-27.559 13.282a1.66 1.66 0 0 0 .02 3l11.042 5.136-11.041 5.135a1.66 1.66 0 0 0-.02 3l13.337 6.429v15.319c0 .628.355 1.203.917 1.484l26.563 13.281c.015.008.032.013.047.02a1.531 1.531 0 0 0 .202.078l.076.023c.046.012.093.02.14.028.023.004.045.01.069.013.063.008.125.012.188.013l.022.001c.07 0 .141-.006.212-.015l.052-.009c.052-.008.104-.019.155-.032.024-.006.047-.014.07-.021.045-.014.089-.03.133-.047.025-.01.05-.02.075-.032.015-.007.03-.012.044-.02l26.562-13.28a1.66 1.66 0 0 0 .918-1.485v-15.319l13.338-6.428a1.66 1.66 0 0 0-.021-3l-11.04-5.136 11.04-5.136a1.66 1.66 0 0 0 .96-1.494z"/></defs><g><g transform="translate(-1271 -1139)"><g><use xlink:href="#hmska"/></g><g><use fill="#32325f" xlink:href="#hmskb"/></g></g></g></svg>