<svg xmlns="http://www.w3.org/2000/svg" xmlns:xlink="http://www.w3.org/1999/xlink" width="74" height="85" viewBox="0 0 74 85"><defs><path id="pnida" d="M437.916 1168.883a1.66 1.66 0 1 0-.002-3.322 1.66 1.66 0 0 0 .002 3.322z"/><path id="pnidb" d="M421.314 1168.883a1.66 1.66 0 1 0-.001-3.322 1.66 1.66 0 0 0 .001 3.322z"/><path id="pnidc" d="M425.177 1180.294a10.33 10.33 0 0 0 4.437.99c1.517 0 2.981-.32 4.353-.95a1.66 1.66 0 0 0-1.387-3.017 7.056 7.056 0 0 1-2.966.647 7.031 7.031 0 0 1-3.022-.673 1.66 1.66 0 1 0-1.415 3.003z"/><path id="pnidd" d="M462.907 1220.68h-24.479l-2.097-9.203 1.444-4.17 1.083.542a1.66 1.66 0 0 0 2.26-.81l6.21-13.956c7.266.537 15.58 6.442 15.58 13.281zm-66.587-14.316c0-6.839 8.314-12.744 15.58-13.281l6.21 13.956a1.661 1.661 0 0 0 2.26.81l1.183-.592 1.347 4.195-2.165 9.228H396.32zm22.947-18.415l7.972 12.753-6.801 3.4-5.47-12.292zm-7.84-23.567l4.612-6.757c3.693 3.142 8.058 4.617 13.576 4.617 5.523 0 9.891-1.478 13.586-4.627l4.75 6.84v3.764c0 9.942-8.126 18.261-18.32 18.261-10.16 0-18.203-8.293-18.203-18.261zm21.524-22.062c8.271 0 15 6.703 15 14.942v1.372l-3.117-4.489a1.66 1.66 0 0 0-2.55-.214c-3.375 3.451-7.283 4.99-12.67 4.99-5.385 0-9.293-1.539-12.67-4.99a1.66 1.66 0 0 0-2.558.225l-2.958 4.335v-1.23c0-8.238 6.676-14.94 14.883-14.94zm-.96 58.382l7.97-12.754 4.299 3.862-5.47 12.293zm-2.377-2.464l-5.769-9.229c1.874.52 3.82.791 5.786.791 1.947 0 3.88-.265 5.743-.777zm3.81 11.485h-7.592l-1.274-3.969 5.057-2.528 5.165 2.584zm-7.487 3.32h7.345l1.74 7.637h-10.877zm40.29-6.679c0-9.129-10.396-16.288-19.308-16.627l-4.546-4.085c5.537-4.04 8.898-10.533 8.898-17.433v-10.957c0-10.07-8.218-18.262-18.32-18.262h-6.64c-10.088 0-18.204 8.163-18.204 18.262v10.957a21.696 21.696 0 0 0 8.782 17.402l-4.58 4.116c-8.893.338-19.309 7.48-19.309 16.627v15.976c0 .917.743 1.66 1.66 1.66h69.908a1.66 1.66 0 0 0 1.66-1.66z"/><path id="pnide" d="M451.197 1213.043h-6.64a1.66 1.66 0 1 0 0 3.32h6.64a1.66 1.66 0 1 0 0-3.32z"/><path id="pnidf" d="M457.746 1213.043a1.66 1.66 0 1 1-.001 3.322 1.66 1.66 0 0 1 .001-3.322z"/></defs><g><g transform="translate(-393 -1139)"><g><use fill="#32325f" xlink:href="#pnida"/></g><g><use fill="#32325f" xlink:href="#pnidb"/></g><g><use fill="#32325f" xlink:href="#pnidc"/></g><g><use fill="#32325f" xlink:href="#pnidd"/></g><g><use fill="#32325f" xlink:href="#pnide"/></g><g><use fill="#32325f" xlink:href="#pnidf"/></g></g></g></svg>