<svg xmlns="http://www.w3.org/2000/svg" xmlns:xlink="http://www.w3.org/1999/xlink" width="58" height="36" viewBox="0 0 58 36"><defs><path id="uh2na" d="M857 1029.901v9.505a.9.9 0 0 1-.908.891h-2.969l.002.06c0 3.111-2.58 5.643-5.752 5.643-3.17 0-5.751-2.532-5.751-5.644l.002-.059h-20.467l.002.06c0 3.111-2.58 5.643-5.752 5.643-3.171 0-5.751-2.532-5.751-5.644l.001-.059h-4.905c-1.035 0-1.877-.826-1.877-1.842v-1.96h-2.967a.9.9 0 0 1-.908-.891.9.9 0 0 1 .908-.891h8.718a.9.9 0 0 1 .909.891.9.9 0 0 1-.909.891h-3.935v1.96c0 .033.027.06.06.06h5.22c.78-2.21 2.922-3.802 5.436-3.802s4.656 1.592 5.436 3.802h18.841v-6.713a.9.9 0 0 1 .909-.891.9.9 0 0 1 .908.891v6.713h.437c.78-2.21 2.921-3.802 5.435-3.802 2.515 0 4.656 1.592 5.436 3.802h2.375v-3.92h-1.03c-1.569 0-2.845-1.253-2.845-2.793v-1.9a.9.9 0 0 1 .908-.892h2.824a2.966 2.966 0 0 0-2.822-2.02h-.003-10.715v1.01a.9.9 0 0 1-.908.892.9.9 0 0 1-.908-.892v-16.158a.06.06 0 0 0-.06-.06h-34.873a.06.06 0 0 0-.061.06V1028a.9.9 0 0 1-.908.891.9.9 0 0 1-.908-.89v-16.16c0-1.015.842-1.841 1.876-1.841h34.873c1.035 0 1.877.826 1.877 1.842v1.96h6.841c2.103 0 3.815 1.679 3.815 3.743v.95a.895.895 0 0 1-.72.872l1.503 5.895c2.295.343 4.06 2.292 4.06 4.639zm-15.499-12.297h8.84v-.06c0-1.08-.897-1.96-1.999-1.96h-6.84zm0 7.604h9.553l-1.483-5.822h-8.07zm-22.159 15.149c0-2.13-1.765-3.862-3.935-3.862s-3.935 1.732-3.935 3.862c0 2.129 1.765 3.861 3.935 3.861s3.935-1.732 3.935-3.861zm31.967 0c0-2.13-1.765-3.862-3.935-3.862s-3.936 1.732-3.936 3.862c0 2.129 1.766 3.861 3.936 3.861s3.935-1.732 3.935-3.861zm3.875-7.545v-2.02h-2.059v1.01c0 .557.462 1.01 1.03 1.01zm-37.9 7.545c0 1.015-.842 1.841-1.877 1.841-1.035 0-1.877-.826-1.877-1.841 0-1.016.842-1.842 1.877-1.842 1.035 0 1.877.826 1.877 1.842zm31.967 0c0 1.015-.842 1.841-1.877 1.841-1.035 0-1.877-.826-1.877-1.841 0-1.016.842-1.842 1.877-1.842 1.035 0 1.877.826 1.877 1.842zm-11.625-4.753a.9.9 0 0 1-.908.891h-13.561a.9.9 0 0 1-.909-.89.9.9 0 0 1 .909-.892h13.561a.9.9 0 0 1 .908.891zm-23.248-3.802a.9.9 0 0 1-.908.891h-11.624a.9.9 0 0 1-.909-.89.9.9 0 0 1 .909-.892h11.624a.9.9 0 0 1 .908.891zm16.201-11.726l-8.718 8.554a.913.913 0 0 1-.642.261.913.913 0 0 1-.642-.26l-4.843-4.753a.88.88 0 0 1 0-1.26.92.92 0 0 1 1.284 0l4.201 4.122 8.076-7.924a.92.92 0 0 1 1.285 0 .88.88 0 0 1 0 1.26z"/></defs><g><g transform="translate(-799 -1010)"><use xlink:href="#uh2na"/></g></g></svg>