<svg xmlns="http://www.w3.org/2000/svg" xmlns:xlink="http://www.w3.org/1999/xlink" width="54" height="50" viewBox="0 0 54 50"><defs><path id="2gv0a" d="M238.393 1051.248c0 2.62-2.13 4.752-4.75 4.752a4.756 4.756 0 0 1-4.748-4.752c0-2.62 2.13-4.752 4.749-4.752a4.756 4.756 0 0 1 4.75 4.752zm-2.652 0a2.1 2.1 0 0 0-2.097-2.099 2.1 2.1 0 0 0-2.098 2.1 2.1 2.1 0 0 0 2.098 2.098 2.1 2.1 0 0 0 2.097-2.099zm19.311 0c0 2.62-2.13 4.752-4.75 4.752a4.756 4.756 0 0 1-4.749-4.752c0-2.62 2.13-4.752 4.75-4.752a4.756 4.756 0 0 1 4.749 4.752zm-2.652 0a2.1 2.1 0 0 0-2.097-2.099 2.1 2.1 0 0 0-2.098 2.1 2.1 2.1 0 0 0 2.098 2.098 2.1 2.1 0 0 0 2.097-2.099zm.398-28.443c0 .733-.594 1.327-1.326 1.327h-19a1.326 1.326 0 0 1 0-2.654h19c.732 0 1.326.594 1.326 1.327zm-1.034 6.889c0 .732-.594 1.327-1.326 1.327h-16.933a1.326 1.326 0 0 1 0-2.654h16.933c.732 0 1.326.594 1.326 1.327zm13.183-11.915l-3.709 18.011a2.662 2.662 0 0 1-2.597 2.118h-32.79l.78 3.79h31.765a1.326 1.326 0 0 1 0 2.653H226.63a2.662 2.662 0 0 1-2.597-2.118l-6.416-31.158-5.82-2.528a1.327 1.327 0 0 1 1.057-2.433l5.82 2.527a2.656 2.656 0 0 1 1.54 1.898l.835 4.052h41.3c.8 0 1.55.356 2.055.977.506.62.704 1.427.542 2.21zm-2.597-.535h-40.754l3.709 18.01h33.336z"/></defs><g><g transform="translate(-211 -1006)"><use xlink:href="#2gv0a"/></g></g></svg>