<svg xmlns="http://www.w3.org/2000/svg" xmlns:xlink="http://www.w3.org/1999/xlink" width="58" height="38" viewBox="0 0 58 38"><defs><path id="9g8za" d="M567 1015.937v26.125c0 3.273-2.712 5.938-6.042 5.938h-45.916c-3.33 0-6.042-2.665-6.042-5.937v-26.126c0-3.272 2.711-5.937 6.042-5.937h45.916c3.33 0 6.042 2.665 6.042 5.937zm-2.417 26.125v-15.437h-53.166v15.437c0 1.965 1.626 3.563 3.625 3.563h45.916c1.999 0 3.625-1.598 3.625-3.563zm0-26.125c0-1.964-1.626-3.562-3.625-3.562h-45.916c-1.999 0-3.625 1.598-3.625 3.562v1.188h53.166zm0 8.313v-4.75h-53.166v4.75zm-31.416 10.687c0 .656-.542 1.188-1.209 1.188h-14.5a1.198 1.198 0 0 1-1.208-1.187c0-.656.541-1.188 1.208-1.188h14.5c.667 0 1.209.532 1.209 1.187zm0 4.75c0 .656-.542 1.188-1.209 1.188h-14.5a1.199 1.199 0 0 1-1.208-1.187c0-.656.541-1.188 1.208-1.188h14.5c.667 0 1.209.532 1.209 1.188zm26.583-4.75v2.375c0 1.965-1.626 3.563-3.625 3.563h-2.417c-1.998 0-3.625-1.598-3.625-3.563v-2.375c0-1.964 1.627-3.562 3.625-3.562h2.417c1.999 0 3.625 1.598 3.625 3.562zm-2.417 0c0-.655-.541-1.187-1.208-1.187h-2.417c-.667 0-1.208.532-1.208 1.188v2.375c0 .655.541 1.187 1.208 1.187h2.417c.667 0 1.208-.532 1.208-1.187z"/></defs><g><g transform="translate(-509 -1010)"><use xlink:href="#9g8za"/></g></g></svg>