<svg xmlns="http://www.w3.org/2000/svg" xmlns:xlink="http://www.w3.org/1999/xlink" width="54" height="40" viewBox="0 0 54 40"><defs><path id="ag41a" d="M1153 1031.333v13.334c0 1.837-1.514 3.333-3.375 3.333h-33.72a3.566 3.566 0 0 1-.047 0h-13.483c-1.86 0-3.375-1.496-3.375-3.333v-13.334c0-5.513 4.543-10 10.125-10H1126v-12.222c0-.613.504-1.111 1.125-1.111h11.25c.621 0 1.125.498 1.125 1.111v6.667c0 .613-.504 1.11-1.125 1.11h-10.125v4.445h14.625c5.582 0 10.125 4.487 10.125 10zm-2.25 0c0-4.289-3.533-7.778-7.875-7.778h-14.625v7.778c0 .614-.504 1.111-1.125 1.111a1.119 1.119 0 0 1-1.125-1.11v-7.779h-10.518c2.297 1.835 3.768 4.64 3.768 7.778v13.334c0 .39-.068.763-.193 1.11h30.568c.621 0 1.125-.5 1.125-1.11zm-49.5 0v13.334a1.12 1.12 0 0 0 1.125 1.11h13.5c.621 0 1.125-.5 1.125-1.11v-13.334c0-4.289-3.533-7.778-7.875-7.778-4.343 0-7.875 3.49-7.875 7.778zm36-21.11h-9v4.444h9z"/></defs><g><g transform="translate(-1099 -1008)"><use xlink:href="#ag41a"/></g></g></svg>