<svg xmlns="http://www.w3.org/2000/svg" xmlns:xlink="http://www.w3.org/1999/xlink" width="82" height="60" viewBox="0 0 82 60"><defs><path id="c39na" d="M923 194.06v49.43a1.51 1.51 0 0 1-1.509 1.51H842.51a1.51 1.51 0 0 1-1.509-1.51v-49.43c0-.835.675-1.51 1.509-1.51h3.61v-3.421c0-.767.572-1.411 1.332-1.5l20.918-2.46A24.706 24.706 0 0 1 882 187.44a24.708 24.708 0 0 1 13.631-2.273l20.918 2.46a1.51 1.51 0 0 1 1.333 1.5v3.421h3.61a1.51 1.51 0 0 1 1.509 1.51zm-39.492-3.99v44.674a24.701 24.701 0 0 1 12.122-1.61l19.234 2.262v-44.924l-19.586-2.303a21.707 21.707 0 0 0-11.77 1.9zm-34.372.402v44.923l19.233-2.261a24.664 24.664 0 0 1 12.122 1.61V190.07a21.705 21.705 0 0 0-11.77-1.901zm70.846 51.507V195.57h-2.101v41.524a1.51 1.51 0 0 1-1.685 1.5l-20.918-2.46a21.711 21.711 0 0 0-12.584 2.3 1.506 1.506 0 0 1-1.388 0 21.714 21.714 0 0 0-12.585-2.3l-20.918 2.46a1.507 1.507 0 0 1-1.684-1.5V195.57h-2.102v46.409zm-34.85-46.362a1.51 1.51 0 0 1 1.06-1.854 24.698 24.698 0 0 1 9.41-.7l15.706 1.846a1.51 1.51 0 0 1-.352 3l-15.705-1.846a21.709 21.709 0 0 0-8.268.615 1.509 1.509 0 0 1-1.851-1.061zm-33.819.968a1.51 1.51 0 0 1 1.322-1.676l15.706-1.847a24.859 24.859 0 0 1 9.412.703 1.51 1.51 0 0 1-.793 2.915 21.85 21.85 0 0 0-8.268-.617l-15.704 1.846a1.51 1.51 0 0 1-1.674-1.324zm33.819 5.96a1.51 1.51 0 0 1 1.06-1.854 24.703 24.703 0 0 1 9.41-.7l15.706 1.846a1.51 1.51 0 0 1-.352 3l-15.705-1.846a21.709 21.709 0 0 0-8.268.616 1.509 1.509 0 0 1-1.851-1.062zm-33.819.968a1.51 1.51 0 0 1 1.322-1.676l15.706-1.846a24.861 24.861 0 0 1 9.412.702 1.51 1.51 0 0 1-.793 2.915 21.857 21.857 0 0 0-8.268-.617l-15.704 1.846a1.51 1.51 0 0 1-1.674-1.324zm33.819 5.96a1.51 1.51 0 0 1 1.06-1.853 24.707 24.707 0 0 1 9.41-.701l15.706 1.846a1.51 1.51 0 0 1-.352 3l-15.705-1.846a21.708 21.708 0 0 0-8.268.616 1.508 1.508 0 0 1-1.851-1.062zm-33.819.968a1.51 1.51 0 0 1 1.322-1.676l15.706-1.846a24.865 24.865 0 0 1 9.412.703 1.51 1.51 0 0 1-.793 2.915 21.856 21.856 0 0 0-8.268-.618l-15.704 1.847a1.51 1.51 0 0 1-1.674-1.324zm33.819 5.96a1.51 1.51 0 0 1 1.06-1.853 24.707 24.707 0 0 1 9.41-.7l15.706 1.845a1.51 1.51 0 0 1-.352 3l-15.705-1.846a21.703 21.703 0 0 0-8.268.616 1.508 1.508 0 0 1-1.851-1.062zm-33.819.969a1.51 1.51 0 0 1 1.322-1.677l15.706-1.846a24.862 24.862 0 0 1 9.412.703 1.51 1.51 0 0 1-.793 2.915 21.85 21.85 0 0 0-8.268-.618l-15.704 1.847a1.51 1.51 0 0 1-1.674-1.324zm61.318 6.928a1.51 1.51 0 0 1-1.674 1.324l-15.706-1.846a21.717 21.717 0 0 0-8.268.615 1.51 1.51 0 0 1-.79-2.915 24.706 24.706 0 0 1 9.41-.7l15.705 1.846a1.51 1.51 0 0 1 1.323 1.676zm-61.318 0a1.51 1.51 0 0 1 1.322-1.676l15.706-1.847a24.861 24.861 0 0 1 9.412.703 1.51 1.51 0 0 1-.793 2.915 21.856 21.856 0 0 0-8.268-.617l-15.704 1.846a1.51 1.51 0 0 1-1.674-1.324z"/></defs><g><g transform="translate(-841 -185)"><use xlink:href="#c39na"/></g></g></svg>