<svg xmlns="http://www.w3.org/2000/svg" xmlns:xlink="http://www.w3.org/1999/xlink" width="72" height="77" viewBox="0 0 72 77"><defs><path id="94eqa" d="M1102 240.085c0 3.714-2.092 7.043-5.46 8.688l-6.63 3.24a14.331 14.331 0 0 1-10.885 4.987h-9.294c-7.882 0-14.294-6.338-14.294-14.13v-11.355c0-.718.59-1.3 1.316-1.3h35.25c.727 0 1.316.582 1.316 1.3v2.86h2.904c3.185 0 5.777 2.562 5.777 5.71zm-11.312-1.154h-32.62v1.214h32.62zm-32.62-6.116v3.516h32.62v-3.516zm32.62 10.055v-.124h-32.62v.124c0 6.357 5.232 11.53 11.663 11.53h9.294c6.43 0 11.663-5.172 11.663-11.53zm8.68-2.785c.001-1.714-1.41-3.109-3.145-3.109h-2.904v5.894c0 1.774-.336 3.471-.942 5.037l2.998-1.465c2.463-1.204 3.994-3.64 3.994-6.357zm-43.525 10.202c0 .719-.59 1.3-1.316 1.3h-23.211a1.308 1.308 0 0 1-1.316-1.3v-59.032c0-.718.59-1.3 1.316-1.3h42.152c.726 0 1.315.582 1.315 1.3v35.259c0 .718-.589 1.3-1.315 1.3a1.308 1.308 0 0 1-1.316-1.3v-33.959h-39.521v56.432h21.896c.726 0 1.316.582 1.316 1.3zm-5.063-43.069c0 .718-.59 1.3-1.316 1.3h-12.001a1.308 1.308 0 0 1-1.316-1.3v-9.886c0-.718.59-1.3 1.316-1.3h12.001c.727 0 1.316.582 1.316 1.3zm-2.631-8.586h-9.37v7.286h9.37zm2.63 13.99c0 .717-.588 1.3-1.315 1.3h-12.001a1.308 1.308 0 0 1-1.316-1.3c0-.719.59-1.301 1.316-1.301h12.001c.727 0 1.316.582 1.316 1.3zm0 5.12c0 .718-.588 1.3-1.315 1.3h-12.001a1.308 1.308 0 0 1-1.316-1.3c0-.719.59-1.3 1.316-1.3h12.001c.727 0 1.316.581 1.316 1.3zm0 5.12c0 .718-.588 1.3-1.315 1.3h-12.001a1.308 1.308 0 0 1-1.316-1.3c0-.719.59-1.3 1.316-1.3h12.001c.727 0 1.316.581 1.316 1.3zm0 5.12c0 .718-.588 1.3-1.315 1.3h-12.001a1.308 1.308 0 0 1-1.316-1.3c0-.718.59-1.3 1.316-1.3h12.001c.727 0 1.316.582 1.316 1.3zm0 5.12c0 .718-.588 1.3-1.315 1.3h-12.001a1.308 1.308 0 0 1-1.316-1.3c0-.718.59-1.3 1.316-1.3h12.001c.727 0 1.316.582 1.316 1.3zm0 5.12c0 .718-.588 1.3-1.315 1.3h-12.001a1.308 1.308 0 0 1-1.316-1.3c0-.718.59-1.3 1.316-1.3h12.001c.727 0 1.316.582 1.316 1.3zm0 5.12c0 .718-.588 1.3-1.315 1.3h-12.001a1.308 1.308 0 0 1-1.316-1.3c0-.718.59-1.3 1.316-1.3h12.001c.727 0 1.316.582 1.316 1.3zm17.857-46.01c0 .718-.59 1.3-1.316 1.3h-12.001a1.308 1.308 0 0 1-1.316-1.3c0-.718.59-1.3 1.316-1.3h12.001c.727 0 1.316.582 1.316 1.3zm0 5.12c0 .718-.59 1.3-1.316 1.3h-12.001a1.308 1.308 0 0 1-1.316-1.3c0-.718.59-1.3 1.316-1.3h12.001c.727 0 1.316.582 1.316 1.3zm0 5.12c0 .718-.59 1.3-1.316 1.3h-12.001a1.308 1.308 0 0 1-1.316-1.3c0-.718.59-1.3 1.316-1.3h12.001c.727 0 1.316.582 1.316 1.3zm0 5.12c0 .719-.59 1.3-1.316 1.3h-12.001a1.308 1.308 0 0 1-1.316-1.3c0-.718.59-1.3 1.316-1.3h12.001c.727 0 1.316.582 1.316 1.3zm0 5.394v8.428c0 .718-.59 1.3-1.316 1.3h-12.001a1.308 1.308 0 0 1-1.316-1.3v-8.428c0-.719.59-1.3 1.316-1.3h12.001c.727 0 1.316.581 1.316 1.3zm-2.63 1.3h-9.372v5.827h9.371zm4.8-33.552c2.559-3.653 6.766-5.834 11.255-5.834 7.543 0 13.68 6.066 13.68 13.523 0 7.456-6.137 13.522-13.68 13.522-1.846 0-3.638-.357-5.325-1.063a1.295 1.295 0 0 1-.7-1.704 1.32 1.32 0 0 1 1.725-.69c1.361.568 2.808.857 4.3.857 6.092 0 11.049-4.9 11.049-10.922 0-6.023-4.957-10.922-11.049-10.922a11.099 11.099 0 0 0-9.091 4.713 1.325 1.325 0 0 1-1.83.329 1.291 1.291 0 0 1-.333-1.81zm5.515 7.689c0-.718.589-1.3 1.315-1.3h3.11v-2.878c0-.718.589-1.3 1.315-1.3.727 0 1.316.582 1.316 1.3v4.178c0 .718-.59 1.3-1.316 1.3h-4.425a1.308 1.308 0 0 1-1.315-1.3z"/></defs><g><g transform="translate(-1030 -180)"><use xlink:href="#94eqa"/></g></g></svg>